<?xml version="1.0" encoding="UTF-8" standalone="no"?>
<svg
   sodipodi:docname="paw.svg"
   inkscape:version="1.2.1 (9c6d41e, 2022-07-14)"
   id="svg975"
   version="1.1"
   viewBox="0 0 50.8 50.8"
   height="2in"
   width="2in"
   xmlns:inkscape="http://www.inkscape.org/namespaces/inkscape"
   xmlns:sodipodi="http://sodipodi.sourceforge.net/DTD/sodipodi-0.dtd"
   xmlns="http://www.w3.org/2000/svg"
   xmlns:svg="http://www.w3.org/2000/svg"
   xmlns:rdf="http://www.w3.org/1999/02/22-rdf-syntax-ns#"
   xmlns:cc="http://creativecommons.org/ns#"
   xmlns:dc="http://purl.org/dc/elements/1.1/">
  <defs
     id="defs969" />
  <sodipodi:namedview
     showguides="false"
     units="in"
     inkscape:window-maximized="0"
     inkscape:window-y="25"
     inkscape:window-x="196"
     inkscape:window-height="789"
     inkscape:window-width="1440"
     showgrid="false"
     inkscape:document-rotation="0"
     inkscape:current-layer="g1557"
     inkscape:document-units="mm"
     inkscape:cy="89.356436"
     inkscape:cx="206.93069"
     inkscape:zoom="2.02"
     inkscape:pageshadow="2"
     inkscape:pageopacity="0.0"
     borderopacity="1.0"
     bordercolor="#666666"
     pagecolor="#ffffff"
     id="base"
     inkscape:showpageshadow="2"
     inkscape:pagecheckerboard="0"
     inkscape:deskcolor="#d1d1d1" />
  <metadata
     id="metadata972">
    <rdf:RDF>
      <cc:Work
         rdf:about="">
        <dc:format>image/svg+xml</dc:format>
        <dc:type
           rdf:resource="http://purl.org/dc/dcmitype/StillImage" />
      </cc:Work>
    </rdf:RDF>
  </metadata>
  <g
     id="layer1"
     inkscape:groupmode="layer"
     inkscape:label="Layer 1">
    <g
       transform="rotate(180,57.904799,66.806571)"
       id="g1557">
      <path
         style="fill:#000000;stroke:#000000;stroke-width:0.264583px;stroke-linecap:butt;stroke-linejoin:miter;stroke-opacity:1"
         d="m 84.579509,117.24263 c -2.41825,-3e-5 -4.3831,2.19155 -4.68538,4.45867 -0.30228,2.26712 1.36027,11.26003 4.83653,9.89976 3.47625,-1.36027 4.68538,-6.80136 4.60981,-8.84177 0,-1.96485 -2.41826,-5.59223 -4.76096,-5.51666 z"
         id="path946"
         inkscape:connector-curvature="0"
         sodipodi:nodetypes="csscc" />
      <path
         style="fill:#000000;stroke:#000000;stroke-width:0.264583px;stroke-linecap:butt;stroke-linejoin:miter;stroke-opacity:1"
         d="m 96.89753,116.18464 c -1.88926,0 -4.685381,0.98242 -4.534241,5.36552 0.15114,4.3831 2.267119,8.9929 4.685379,8.84176 2.41826,-0.15114 5.365522,-4.15638 5.138812,-7.78377 -0.22671,-3.6274 -1.96484,-6.34794 -5.28995,-6.42351 z"
         id="path948"
         inkscape:connector-curvature="0"
         sodipodi:nodetypes="csssc" />
      <path
         sodipodi:nodetypes="csscc"
         inkscape:connector-curvature="0"
         id="path950"
         d="m 73.168338,104.84904 c -2.41825,-3e-5 -5.1388,2.19155 -5.44108,4.45867 -0.30228,2.26712 -0.40637,9.7767 3.32511,9.67305 2.72055,-0.0756 5.97008,-6.65022 5.89451,-8.69063 0,-1.96485 -1.43584,-5.51666 -3.77854,-5.44109 z"
         style="fill:#000000;stroke:#000000;stroke-width:0.264583px;stroke-linecap:butt;stroke-linejoin:miter;stroke-opacity:1" />
      <path
         style="fill:#000000;stroke:#000000;stroke-width:0.264583px;stroke-linecap:butt;stroke-linejoin:miter;stroke-opacity:1"
         d="m 107.60067,104.32626 c -2.29256,0.76948 -3.79647,3.33498 -3.58834,5.9583 0.18089,2.28002 2.54991,7.57029 5.55017,6.82749 1.80871,-0.44781 3.24133,-6.54172 2.89828,-8.75431 0.20604,-2.165 -2.51209,-4.62187 -4.86011,-4.03148 z"
         id="path952"
         inkscape:connector-curvature="0"
         sodipodi:nodetypes="csscc" />
      <path
         style="fill:#000000;stroke:#000000;stroke-width:0.264583px;stroke-linecap:butt;stroke-linejoin:miter;stroke-opacity:1"
         d="m 92.399239,85.468819 c -2.96451,-0.0872 -11.50927,2.35417 -12.46837,4.35957 -0.95911,2.0054 -1.83103,4.35957 0.78472,5.75464 2.61574,1.39506 4.27238,1.13348 5.40587,3.13888 1.13349,2.005411 2.09259,6.103411 6.53936,5.929021 4.446761,-0.17438 4.010799,-5.057101 5.754631,-6.713731 1.74383,-1.65664 3.13889,-0.78473 5.05711,-2.61575 1.22068,-1.48225 1.22067,-4.35957 0.61034,-6.45216 -0.52315,-2.0926 -8.457582,-3.57486 -11.683661,-3.40047 z"
         id="path954"
         inkscape:connector-curvature="0"
         sodipodi:nodetypes="ccccccccc" />
    </g>
  </g>
</svg>
